# xmcd CD database file
#
# Track frame offsets:
#	150
#	68195
#	92990
#	128495
#	165042
#	228325
#	243030
#	266775
#	285032
#	301575
#	330122
#
# Disc length: 4672 seconds
#
# Revision: 1
# Processed by: cddbd v1.5.2PL0 Copyright (c) Steve Scherf et al.
# Submitted via: CDex 1.51
#
DISCID=76123e0b
DTITLE=MILES DAVIS - The Essential Miles Davis [CD2]
DYEAR=2001
DGENRE=Jazz
TTITLE0=My Funny Valentine
TTITLE1=E.S.P.
TTITLE2=Nefertiti
TTITLE3=Petits Machins (Little Stuff)
TTITLE4=Miles Runs The Voodoo Down
TTITLE5=Little Church
TTITLE6=Black Satin
TTITLE7=Jean Pierre
TTITLE8=Time After Time
TTITLE9=Portia
TTITLE10=Human Nature
EXTD=YEAR: 2001
EXTT0=
EXTT1=
EXTT2=
EXTT3=
EXTT4=
EXTT5=
EXTT6=
EXTT7=
EXTT8=
EXTT9=
EXTT10=
PLAYORDER=
